<?xml version="1.0" standalone="no"?>
<!DOCTYPE svg PUBLIC "-//W3C//DTD SVG 20010904//EN"
 "http://www.w3.org/TR/2001/REC-SVG-20010904/DTD/svg10.dtd">
<svg version="1.0" xmlns="http://www.w3.org/2000/svg"
 width="1200.000000pt" height="1200.000000pt" viewBox="0 0 1200.000000 1200.000000"
 preserveAspectRatio="xMidYMid meet">
<metadata>
Created by potrace 1.14, written by Peter Selinger 2001-2017
</metadata>
<g transform="translate(0.000000,1200.000000) scale(0.100000,-0.100000)"
fill="#000000" stroke="none">
<path d="M5805 9470 c-98 -17 -277 -75 -283 -92 -2 -4 -8 -8 -13 -8 -6 0 -47
-22 -92 -48 -45 -27 -89 -51 -97 -55 -8 -4 -28 -16 -45 -26 -16 -11 -46 -28
-65 -39 -46 -26 -87 -49 -195 -112 -49 -29 -106 -61 -125 -72 -102 -58 -178
-102 -200 -116 -14 -9 -27 -17 -30 -17 -3 0 -54 -30 -115 -66 -60 -36 -117
-68 -125 -72 -8 -4 -31 -17 -50 -28 -37 -23 -275 -161 -325 -189 -16 -10 -91
-52 -165 -95 -74 -44 -145 -84 -157 -89 -13 -6 -23 -14 -23 -18 0 -5 -4 -8
-10 -8 -5 0 -102 -54 -216 -120 -114 -66 -209 -120 -212 -120 -2 0 -16 -8 -30
-19 -26 -17 -92 -56 -157 -91 -16 -9 -41 -23 -55 -31 -82 -51 -202 -119 -210
-119 -6 0 -10 -4 -10 -10 0 -5 -6 -10 -14 -10 -17 0 -109 -71 -154 -119 -41
-44 -112 -161 -112 -184 0 -9 -3 -17 -8 -17 -13 0 -49 -114 -77 -247 -11 -52
-14 -66 -20 -83 -3 -10 -8 -28 -10 -39 -3 -12 -7 -30 -10 -42 -2 -11 -7 -29
-10 -39 -3 -10 -8 -28 -10 -39 -8 -36 -12 -50 -79 -321 -37 -146 -68 -274 -71
-285 -2 -11 -16 -65 -30 -120 -14 -55 -28 -111 -31 -124 -3 -14 -21 -88 -41
-165 -19 -78 -37 -154 -40 -171 -3 -16 -9 -37 -13 -45 -4 -8 -11 -31 -14 -51
-3 -20 -10 -48 -16 -63 -5 -15 -9 -30 -8 -34 1 -4 -4 -27 -11 -52 -14 -47 -19
-68 -27 -110 -3 -14 -10 -41 -16 -60 -7 -19 -13 -44 -14 -55 -1 -11 -10 -45
-18 -75 -24 -84 -31 -137 -30 -235 1 -102 5 -132 29 -201 48 -143 140 -254
282 -343 46 -28 84 -51 86 -51 2 0 104 -59 227 -130 122 -72 224 -130 227
-130 2 0 27 -15 56 -33 29 -19 72 -45 97 -59 60 -34 103 -58 175 -101 33 -20
76 -44 95 -53 19 -10 37 -20 40 -23 5 -6 17 -13 99 -59 25 -14 63 -36 83 -49
21 -12 40 -23 43 -23 3 0 18 -8 33 -19 15 -10 119 -71 232 -136 113 -65 216
-125 230 -134 14 -8 27 -16 30 -16 3 0 23 -12 45 -26 22 -14 72 -43 110 -64
39 -20 77 -42 85 -49 8 -6 24 -16 35 -22 11 -6 124 -71 250 -144 127 -73 244
-141 260 -150 17 -9 65 -38 108 -64 43 -25 80 -46 83 -46 2 0 28 -16 58 -35
30 -19 57 -35 60 -35 9 0 131 -75 134 -82 2 -5 8 -8 14 -8 5 0 51 -24 101 -53
104 -60 148 -81 227 -109 156 -56 298 -77 470 -73 134 4 177 9 282 36 161 40
243 77 503 229 88 51 175 101 193 111 18 9 38 22 45 27 7 6 19 12 27 14 8 2
22 10 31 18 10 8 35 24 56 35 21 11 65 36 98 55 33 20 67 39 75 43 8 4 38 21
65 38 28 16 58 33 68 36 9 3 17 10 17 15 0 5 5 6 10 3 6 -3 10 -1 10 4 0 6 5
11 10 11 6 0 27 11 48 23 20 13 57 35 82 49 45 25 358 206 411 237 106 62 350
202 379 217 19 11 37 22 40 25 3 3 23 14 45 25 22 10 42 21 45 24 3 4 28 19
55 35 28 15 79 44 115 65 36 21 81 47 100 58 19 11 75 43 123 71 48 28 92 51
97 51 6 0 10 4 10 9 0 5 10 13 23 17 12 3 33 14 47 24 22 15 48 30 150 87 14
8 48 28 75 44 28 17 58 33 68 36 9 3 17 9 17 14 0 5 4 9 10 9 5 0 44 20 86 45
41 25 77 45 79 45 2 0 40 23 85 50 45 28 84 50 87 50 3 0 24 14 47 32 120 93
197 207 237 348 24 87 15 310 -15 358 -4 7 -74 268 -91 342 -2 8 -22 87 -45
175 -23 88 -45 176 -50 195 -14 64 -32 134 -45 180 -13 43 -110 422 -120 468
-3 12 -7 30 -10 40 -2 9 -18 71 -35 137 -17 66 -41 161 -55 210 -13 50 -26
102 -29 117 -2 15 -9 42 -15 60 -12 38 -40 149 -47 181 -2 12 -7 38 -11 57 -4
19 -7 37 -8 40 -3 17 -29 87 -35 95 -5 6 -8 14 -9 18 0 19 -63 109 -109 156
-44 45 -218 157 -362 233 -19 10 -42 23 -50 28 -29 19 -222 130 -225 130 -2 0
-32 17 -66 38 -35 21 -89 52 -119 69 -30 17 -111 63 -180 103 -147 86 -177
103 -250 143 -30 16 -59 33 -65 37 -9 7 -202 119 -312 181 -21 12 -51 30 -68
40 -16 11 -36 22 -44 26 -8 3 -63 35 -122 69 -60 35 -128 74 -151 87 -96 54
-447 257 -503 291 -33 20 -66 36 -72 36 -7 0 -13 5 -13 10 0 6 -5 10 -10 10
-6 0 -29 12 -53 27 -82 53 -256 144 -317 166 -171 62 -373 79 -555 47z m295
-464 c14 -3 38 -8 54 -12 42 -9 123 -47 207 -96 40 -24 81 -47 89 -51 8 -4 29
-16 45 -27 17 -11 36 -23 44 -26 7 -4 52 -30 100 -57 104 -60 128 -74 206
-118 33 -18 62 -37 63 -41 2 -4 7 -8 12 -8 5 0 48 -23 97 -51 89 -52 127 -74
186 -108 17 -10 72 -41 121 -70 49 -28 93 -51 97 -51 5 0 9 -4 9 -10 0 -5 4
-10 9 -10 8 0 192 -103 251 -140 46 -29 104 -60 111 -60 5 0 9 -4 9 -10 0 -5
4 -10 10 -10 7 0 468 -263 615 -351 17 -10 46 -26 65 -36 19 -9 37 -19 40 -22
5 -6 17 -13 99 -59 25 -14 63 -36 83 -49 21 -12 39 -23 42 -23 2 0 45 -25 95
-55 51 -30 95 -55 100 -55 4 0 23 -15 41 -34 59 -60 43 -143 -35 -185 -16 -9
-52 -30 -80 -46 -27 -17 -62 -37 -78 -45 -45 -25 -281 -160 -297 -170 -8 -6
-34 -20 -57 -32 -24 -12 -43 -26 -43 -30 0 -4 -4 -8 -10 -8 -5 0 -62 -31 -127
-68 -145 -84 -209 -121 -248 -140 -16 -9 -32 -18 -35 -22 -3 -3 -61 -38 -130
-77 -69 -39 -141 -80 -160 -92 -58 -33 -152 -87 -205 -116 -27 -15 -56 -32
-63 -38 -18 -14 -93 -56 -124 -70 -16 -6 -28 -15 -28 -19 0 -4 -7 -8 -15 -8
-8 0 -15 -5 -15 -12 0 -6 -3 -8 -6 -5 -4 4 -19 -2 -33 -12 -26 -18 -102 -62
-153 -88 -15 -8 -30 -19 -33 -24 -4 -5 -11 -7 -16 -4 -5 4 -9 2 -9 -2 0 -5
-24 -21 -52 -36 -29 -15 -62 -33 -73 -40 -11 -7 -43 -27 -72 -44 -30 -18 -57
-33 -61 -33 -4 0 -30 -16 -58 -34 -29 -19 -54 -32 -58 -29 -3 4 -6 1 -6 -5 0
-7 -7 -12 -15 -12 -8 0 -15 -4 -15 -10 0 -5 -6 -10 -13 -10 -7 0 -29 -11 -50
-25 -20 -14 -37 -22 -37 -18 0 4 -4 3 -8 -2 -8 -12 -130 -85 -141 -85 -5 0
-14 -7 -21 -15 -6 -8 -15 -14 -18 -13 -4 1 -18 -4 -30 -11 -159 -87 -436 -83
-582 10 -8 5 -27 15 -42 22 -16 6 -28 15 -28 19 0 4 -6 8 -13 8 -7 0 -28 11
-47 23 -19 13 -55 35 -80 49 -63 35 -120 68 -155 89 -16 10 -46 26 -65 37 -61
34 -424 244 -455 263 -16 10 -46 27 -65 37 -19 10 -80 45 -135 77 -91 53 -238
138 -325 187 -19 11 -72 42 -118 69 -45 27 -87 49 -92 49 -6 0 -10 5 -10 10 0
6 -4 10 -9 10 -9 0 -106 53 -161 88 -14 9 -27 17 -30 17 -5 0 -48 26 -228 132
-41 24 -76 43 -78 43 -2 0 -23 12 -47 27 -23 15 -53 33 -67 40 -14 7 -41 22
-60 34 -19 12 -117 68 -217 126 -100 58 -190 114 -199 124 -24 27 -23 98 1
130 11 14 55 46 100 71 44 25 152 87 240 138 88 51 178 102 200 114 22 11 42
23 45 26 3 3 59 37 125 74 148 85 177 101 349 201 75 44 158 91 184 105 26 13
49 27 52 30 3 3 95 57 205 120 110 63 203 119 207 124 4 6 8 8 8 4 0 -4 24 7
53 26 28 18 88 52 132 76 44 24 86 50 93 57 7 7 18 13 23 13 5 0 28 11 50 26
22 14 55 33 73 43 88 50 562 324 571 331 24 18 153 63 214 74 64 12 159 13
211 2z m-3133 -2338 c76 -45 163 -95 193 -111 30 -17 87 -49 125 -72 39 -23
108 -64 155 -91 46 -27 94 -54 105 -61 11 -6 34 -19 50 -27 17 -9 48 -27 70
-39 230 -135 340 -197 347 -197 4 0 8 -4 8 -10 0 -5 4 -10 10 -10 5 0 31 -13
58 -29 26 -15 68 -39 93 -53 50 -28 146 -84 169 -98 24 -15 171 -99 230 -132
19 -11 49 -28 65 -39 17 -10 37 -22 45 -26 8 -4 91 -51 184 -105 93 -54 172
-98 177 -98 5 0 9 -4 9 -9 0 -5 8 -11 18 -14 22 -7 136 -72 172 -97 16 -11 30
-20 33 -20 3 0 44 -23 91 -51 74 -43 221 -116 244 -120 4 -1 17 -5 30 -10 13
-5 26 -9 30 -9 4 0 24 -5 45 -11 27 -7 37 -15 33 -24 -3 -8 -1 -17 5 -20 5 -4
6 -12 2 -18 -10 -16 -10 -198 0 -219 4 -10 4 -18 0 -18 -4 0 -8 -25 -8 -55 0
-30 4 -55 8 -55 5 0 5 -5 1 -11 -9 -16 -11 -109 -1 -109 4 0 4 -8 0 -18 -10
-22 -10 -83 0 -99 5 -7 5 -13 0 -13 -10 0 -9 -93 1 -109 4 -6 4 -11 -1 -11 -4
0 -8 -25 -8 -55 0 -30 4 -55 8 -55 5 0 5 -5 1 -11 -9 -16 -11 -109 -1 -109 4
0 4 -8 0 -17 -10 -23 -10 -84 0 -100 5 -7 5 -13 0 -13 -10 0 -9 -93 1 -109 4
-6 4 -11 -1 -11 -4 0 -8 -25 -8 -55 0 -30 4 -55 8 -55 5 0 5 -5 1 -11 -9 -14
-9 -93 0 -107 3 -6 3 -13 -1 -15 -10 -6 -9 -129 0 -145 4 -6 4 -13 0 -15 -10
-6 -9 -129 0 -145 4 -6 4 -13 0 -15 -10 -6 -9 -129 0 -145 4 -6 4 -13 -1 -16
-4 -2 -6 -34 -5 -70 1 -36 -1 -68 -6 -70 -7 -5 -81 31 -248 117 -13 7 -23 15
-23 20 0 4 -4 7 -9 7 -8 0 -131 69 -291 163 -19 11 -57 33 -85 49 -27 16 -57
33 -65 38 -128 76 -241 140 -250 140 -5 0 -10 5 -10 10 0 6 -4 10 -9 10 -6 0
-64 31 -130 70 -66 38 -124 70 -129 70 -6 0 -12 4 -14 8 -3 9 -43 32 -218 130
-25 14 -77 45 -117 69 -39 23 -76 43 -82 43 -6 0 -11 5 -11 10 0 6 -4 10 -9
10 -5 0 -30 12 -56 28 -26 15 -64 36 -84 48 -20 11 -92 54 -161 94 -69 40
-149 86 -178 102 -30 17 -99 57 -154 89 -55 32 -104 59 -109 59 -5 0 -9 5 -9
10 0 6 -5 10 -10 10 -6 0 -48 23 -94 50 -46 28 -86 50 -89 50 -3 0 -23 12 -44
26 -21 14 -47 30 -58 35 -11 5 -27 13 -35 19 -43 29 -172 100 -180 100 -6 0
-10 4 -10 8 0 5 -16 14 -35 22 -19 8 -35 17 -35 21 0 4 -8 9 -17 12 -10 4 -40
20 -68 37 -27 16 -72 43 -99 58 -27 15 -57 32 -68 38 -20 12 -74 84 -62 84 3
0 2 6 -4 13 -12 15 -8 92 7 129 6 17 7 29 1 33 -7 4 -6 13 0 26 6 10 8 19 6
19 -3 0 -1 11 4 26 6 14 12 37 15 52 2 15 16 69 29 121 14 52 23 98 20 103 -3
4 -1 8 4 8 5 0 9 6 9 13 0 6 6 32 12 57 11 41 17 68 26 110 2 8 4 15 5 15 1 0
3 8 5 17 2 9 11 47 20 84 22 89 26 104 32 134 2 14 7 32 10 40 3 8 8 22 9 30
2 8 13 51 24 95 11 44 23 90 26 103 4 19 30 126 49 202 29 116 67 269 71 285
10 40 12 50 13 63 1 20 26 9 178 -80z m6219 55 c3 -16 10 -42 15 -59 5 -17 11
-40 13 -50 4 -16 24 -95 111 -434 2 -8 10 -42 19 -75 8 -33 33 -132 56 -220
22 -88 43 -167 44 -175 2 -8 9 -35 16 -60 7 -25 14 -52 15 -60 2 -8 22 -87 45
-175 23 -88 43 -167 45 -176 2 -9 13 -52 24 -95 30 -114 31 -137 11 -180 -20
-45 -49 -73 -105 -104 -22 -12 -53 -30 -70 -41 -16 -10 -37 -22 -45 -26 -8 -4
-44 -24 -79 -46 -35 -21 -74 -43 -85 -48 -12 -5 -34 -18 -51 -29 -16 -11 -48
-30 -70 -42 -22 -12 -49 -28 -60 -35 -11 -7 -31 -18 -45 -25 -14 -7 -27 -15
-30 -18 -3 -3 -14 -10 -25 -16 -86 -46 -111 -60 -115 -64 -3 -3 -16 -11 -29
-18 -57 -33 -100 -57 -331 -192 -135 -79 -263 -152 -285 -164 -22 -11 -45 -26
-51 -31 -6 -6 -30 -19 -53 -29 -22 -11 -41 -23 -41 -28 0 -4 -6 -8 -12 -8 -7
-1 -38 -16 -68 -35 -30 -19 -71 -43 -90 -53 -19 -10 -107 -61 -195 -112 -88
-51 -180 -105 -205 -119 -25 -13 -48 -30 -52 -35 -4 -6 -8 -8 -8 -4 0 4 -46
-21 -103 -55 -56 -34 -120 -71 -142 -82 -22 -11 -42 -23 -45 -26 -3 -4 -23
-17 -45 -28 -22 -12 -47 -26 -55 -31 -32 -20 -368 -214 -420 -243 -30 -17 -57
-33 -60 -36 -3 -4 -24 -15 -47 -26 -24 -11 -43 -23 -43 -27 0 -5 -6 -8 -14 -8
-7 0 -24 -8 -37 -18 -13 -10 -56 -30 -95 -44 l-71 -26 0 1064 c0 585 3 1064 6
1065 50 6 151 37 216 65 22 10 43 17 48 16 4 -1 7 2 7 8 0 5 4 10 10 10 5 0
53 25 107 56 54 32 107 62 118 68 11 6 28 17 38 25 9 8 17 10 17 5 0 -5 4 -4
8 2 4 6 27 22 52 36 87 48 215 123 220 128 3 3 34 21 70 39 36 19 70 38 76 43
22 17 376 218 384 218 5 0 10 4 12 8 2 4 30 23 63 41 86 49 114 65 170 98 28
16 57 32 65 36 8 4 29 16 45 27 17 10 41 25 55 33 14 7 144 82 290 167 327
189 442 255 500 287 25 14 50 29 55 33 6 4 33 20 60 35 81 46 96 54 175 100
41 25 78 44 82 45 4 0 10 -12 14 -27z"/>
<path d="M6810 8193 c-327 -67 -347 -359 -31 -443 104 -28 261 -12 348 33 38
20 93 71 93 87 0 5 4 10 9 10 18 0 29 81 18 141 -6 35 -81 123 -106 124 -3 1
-17 7 -31 15 -14 8 -27 15 -30 15 -3 1 -24 7 -48 14 -24 7 -51 11 -60 10 -9
-1 -19 0 -22 1 -19 8 -85 4 -140 -7z"/>
<path d="M6499 7646 c-2 -2 -22 -6 -44 -9 -47 -6 -60 -22 -69 -83 -14 -107
-101 -206 -242 -275 -78 -38 -199 -75 -278 -85 -22 -3 -43 -7 -46 -9 -4 -2
-49 -7 -101 -10 -52 -3 -104 -11 -116 -17 -33 -16 -41 -54 -27 -116 19 -83 30
-91 127 -87 114 5 213 16 247 29 8 3 31 7 50 10 88 14 234 70 318 123 29 18
55 33 58 33 7 0 76 53 117 90 41 36 111 136 136 195 12 28 25 78 28 111 5 58
4 63 -20 79 -17 11 -42 16 -69 14 -24 -2 -49 0 -55 4 -5 3 -12 5 -14 3z"/>
<path d="M4915 7053 c-27 -8 -54 -15 -60 -17 -108 -32 -185 -121 -181 -206 4
-59 17 -88 57 -129 137 -134 449 -135 587 -2 159 153 2 360 -278 366 -41 1
-97 -5 -125 -12z"/>
</g>
</svg>
