<?xml version="1.0" standalone="no"?>
<!DOCTYPE svg PUBLIC "-//W3C//DTD SVG 20010904//EN"
 "http://www.w3.org/TR/2001/REC-SVG-20010904/DTD/svg10.dtd">
<svg version="1.0" xmlns="http://www.w3.org/2000/svg"
 width="866.000000pt" height="866.000000pt" viewBox="0 0 866.000000 866.000000"
 preserveAspectRatio="xMidYMid meet">
<metadata>
Created by potrace 1.14, written by Peter Selinger 2001-2017
</metadata>
<g transform="translate(0.000000,866.000000) scale(0.100000,-0.100000)"
fill="#000000" stroke="none">
<path d="M4200 7360 c-95 -12 -185 -37 -265 -74 -83 -38 -2388 -1366 -2487
-1433 -38 -25 -86 -68 -108 -96 -91 -114 -99 -138 -364 -1211 -174 -698 -250
-1021 -253 -1075 -12 -191 80 -387 231 -490 48 -33 2799 -1627 2866 -1661 268
-136 659 -145 946 -23 64 28 2842 1623 2929 1683 106 73 191 198 221 327 17
73 14 264 -5 286 -9 11 -478 1829 -502 1947 -19 94 -66 179 -138 250 -61 60
-164 122 -1300 774 -679 390 -1268 722 -1308 738 -136 53 -322 76 -463 58z
m243 -435 c32 -8 77 -24 100 -36 102 -52 2404 -1384 2425 -1404 29 -27 32 -77
6 -111 -21 -27 -2364 -1382 -2454 -1420 -118 -48 -280 -49 -398 -1 -31 12
-597 334 -1258 715 -906 523 -1204 699 -1213 718 -17 39 -13 61 17 93 25 28
2346 1374 2439 1415 103 45 235 57 336 31z m-1775 -2637 c631 -364 1188 -680
1237 -704 50 -23 115 -49 145 -56 l55 -14 3 -927 c1 -510 0 -927 -3 -927 -22
0 -292 153 -1510 857 -1125 651 -1405 817 -1423 844 -21 30 -23 42 -18 94 4
33 7 69 8 80 1 19 333 1375 343 1403 2 6 7 12 10 12 4 0 522 -298 1153 -662z
m4642 -86 c104 -407 190 -756 190 -774 0 -78 47 -48 -1441 -910 -1313 -760
-1486 -858 -1516 -858 -10 0 -13 192 -13 925 l0 924 43 11 c67 17 127 40 207
81 41 21 584 332 1205 692 622 360 1131 653 1132 652 1 0 88 -335 193 -743z"/>
<path d="M5024 6225 c-138 -30 -214 -101 -214 -200 0 -108 90 -182 249 -205
147 -21 284 22 346 109 24 35 29 51 29 96 -2 101 -76 172 -212 200 -81 18
-118 18 -198 0z"/>
<path d="M4682 5728 c-5 -7 -15 -37 -21 -67 -14 -66 -38 -106 -94 -158 -106
-97 -258 -150 -495 -172 -122 -11 -138 -24 -127 -106 5 -40 14 -65 30 -81 21
-21 30 -23 97 -18 108 7 263 33 338 56 282 87 484 278 498 472 4 49 1 62 -14
73 -24 18 -197 18 -212 1z"/>
<path d="M3390 5231 c-139 -26 -240 -113 -240 -207 2 -177 296 -271 517 -163
34 16 71 42 83 56 29 37 44 95 35 139 -10 54 -83 125 -156 152 -65 24 -174 34
-239 23z"/>
</g>
</svg>
